<?xml version="1.0" encoding="UTF-8"?>
<svg id="Calque_2" data-name="Calque 2" xmlns="http://www.w3.org/2000/svg" viewBox="0 0 107.54 56.96">
  <defs>
    <style>
      .cls-1 {
        fill: #fff;
      }
    </style>
  </defs>
  <g id="Calque_1-2" data-name="Calque 1">
    <path class="cls-1" d="M53.26,0c1.99,0,3.9.79,5.3,2.2,1.41,1.41,2.2,3.31,2.2,5.3s-.79,3.9-2.2,5.3c-1.41,1.41-3.31,2.2-5.3,2.2s-3.9-.79-5.3-2.2c-1.41-1.41-2.2-3.31-2.2-5.3s.79-3.9,2.2-5.3c1.41-1.41,3.31-2.2,5.3-2.2ZM53.26,3.75c-.99,0-1.95.4-2.65,1.1-.7.7-1.1,1.66-1.1,2.65s.4,1.95,1.1,2.65c.7.7,1.66,1.1,2.65,1.1s1.95-.4,2.65-1.1c.7-.7,1.1-1.66,1.1-2.65s-.4-1.95-1.1-2.65c-.7-.7-1.66-1.1-2.65-1.1ZM53.26,16.88c5.01,0,15,2.49,15,7.5v5.63h-30v-5.63c0-5.01,9.99-7.5,15-7.5ZM53.26,20.44c-5.57,0-11.44,2.74-11.44,3.94v2.06h22.87v-2.06c0-1.2-5.87-3.94-11.44-3.94Z"/>
    <path class="cls-1" d="M0,53v-12.6h2.21l4.59,7.47-1.3-.02,4.64-7.45h2.11v12.6h-2.32v-4.73c0-1.08.02-2.05.07-2.92.06-.86.16-1.72.29-2.57l.29.77-3.91,6.03h-1.19l-3.78-5.98.25-.83c.13.8.22,1.63.27,2.48.06.84.09,1.84.09,3.01v4.73H0ZM19.59,53.18c-.95,0-1.79-.21-2.54-.63-.74-.43-1.33-1.02-1.76-1.76s-.65-1.59-.65-2.54.22-1.79.65-2.54,1.02-1.33,1.76-1.75c.74-.43,1.59-.65,2.54-.65s1.78.22,2.52.65c.74.42,1.33,1,1.75,1.75.43.74.65,1.59.65,2.54s-.22,1.79-.65,2.54c-.42.74-1,1.33-1.75,1.76-.74.42-1.58.63-2.52.63ZM19.59,51.22c.52,0,.97-.13,1.37-.4.41-.26.73-.62.95-1.06.24-.44.35-.95.34-1.51.01-.58-.1-1.09-.34-1.53-.23-.44-.55-.79-.95-1.04-.4-.26-.85-.4-1.37-.4s-.98.13-1.4.4c-.41.25-.73.61-.95,1.06-.23.44-.34.95-.34,1.51s.11,1.07.34,1.51c.23.44.55.8.95,1.06.42.26.89.4,1.4.4ZM26.48,53v-9.49h2.16l.04,1.94-.41.22c.12-.43.35-.82.7-1.17.35-.36.76-.65,1.24-.86s.97-.32,1.48-.32c.72,0,1.32.14,1.8.43.49.29.86.72,1.1,1.3.25.58.38,1.3.38,2.16v5.8h-2.21v-5.63c0-.48-.07-.88-.2-1.19-.13-.32-.34-.56-.61-.7-.28-.16-.61-.23-1.01-.22-.32,0-.62.05-.9.16-.26.1-.5.24-.7.43-.19.18-.35.39-.47.63-.11.24-.16.5-.16.79v5.72h-2.21ZM46.81,53.18c-.89,0-1.69-.22-2.39-.65-.71-.43-1.27-1.02-1.67-1.76-.41-.74-.61-1.58-.61-2.52s.2-1.78.61-2.52c.41-.74.97-1.33,1.67-1.76s1.51-.65,2.39-.65,1.63.16,2.32.49c.7.32,1.24.77,1.62,1.35l-1.22,1.48c-.18-.25-.41-.48-.68-.68-.28-.2-.57-.37-.88-.49s-.62-.18-.94-.18c-.53,0-1,.13-1.42.4-.41.25-.73.61-.97,1.06-.24.44-.36.95-.36,1.51s.12,1.07.36,1.51c.25.44.59.8,1.01,1.06.42.26.89.4,1.4.4.31,0,.61-.05.9-.14.3-.11.58-.26.85-.45s.51-.43.74-.72l1.22,1.49c-.41.53-.97.96-1.69,1.3-.71.32-1.46.49-2.25.49ZM56.78,53.18c-.95,0-1.79-.21-2.54-.63-.74-.43-1.33-1.02-1.76-1.76s-.65-1.59-.65-2.54.22-1.79.65-2.54,1.02-1.33,1.76-1.75c.74-.43,1.59-.65,2.54-.65s1.78.22,2.52.65c.74.42,1.33,1,1.75,1.75.43.74.65,1.59.65,2.54s-.22,1.79-.65,2.54c-.42.74-1,1.33-1.75,1.76-.74.42-1.58.63-2.52.63ZM56.78,51.22c.52,0,.97-.13,1.37-.4.41-.26.73-.62.95-1.06.24-.44.35-.95.34-1.51.01-.58-.1-1.09-.34-1.53-.23-.44-.55-.79-.95-1.04-.4-.26-.85-.4-1.37-.4s-.98.13-1.4.4c-.41.25-.73.61-.95,1.06-.23.44-.34.95-.34,1.51s.11,1.07.34,1.51c.23.44.55.8.95,1.06.42.26.89.4,1.4.4ZM63.64,53v-9.49h2.18l.04,1.91-.36.14c.11-.31.27-.6.49-.86.22-.28.47-.51.77-.7.3-.2.62-.36.95-.47.34-.12.68-.18,1.03-.18.52,0,.97.08,1.37.25.41.16.74.41,1.01.76.28.35.48.79.61,1.33l-.34-.07.14-.29c.13-.29.32-.55.56-.77.24-.24.51-.45.81-.63.3-.19.61-.34.94-.43.34-.1.67-.14.99-.14.72,0,1.32.14,1.8.43.48.29.84.73,1.08,1.31.24.59.36,1.31.36,2.18v5.72h-2.23v-5.58c0-.48-.07-.88-.2-1.19-.12-.31-.31-.54-.58-.68-.25-.16-.57-.23-.95-.23-.3,0-.59.05-.86.16-.26.1-.49.24-.68.43-.19.18-.34.39-.45.63-.11.24-.16.5-.16.79v5.67h-2.23v-5.6c0-.46-.07-.83-.2-1.13-.13-.31-.32-.55-.58-.7-.25-.17-.56-.25-.92-.25-.3,0-.58.05-.85.16-.26.1-.49.23-.68.41-.19.18-.34.39-.45.63-.11.24-.16.5-.16.79v5.69h-2.23ZM80.52,56.96v-13.45h2.18l.04,2.16-.38-.16c.07-.37.28-.72.61-1.04.34-.34.74-.61,1.22-.81.49-.2,1-.31,1.53-.31.84,0,1.58.21,2.23.63.66.42,1.18,1,1.55,1.73.38.73.58,1.58.58,2.54s-.19,1.79-.58,2.54c-.37.73-.89,1.31-1.55,1.75-.65.42-1.38.63-2.2.63-.55,0-1.09-.11-1.6-.32-.5-.22-.94-.5-1.3-.85-.35-.35-.56-.71-.65-1.1l.54-.25v6.32h-2.23ZM85.3,51.2c.5,0,.95-.13,1.35-.38.4-.25.7-.6.92-1.04.23-.44.34-.95.34-1.53s-.11-1.08-.32-1.51c-.22-.44-.52-.79-.92-1.04-.4-.25-.85-.38-1.37-.38s-.99.13-1.39.38c-.38.24-.69.58-.92,1.03-.23.44-.34.95-.34,1.53s.11,1.09.34,1.53c.23.44.53.79.92,1.04.4.25.86.38,1.39.38ZM93.07,53v-11.9h2.21v11.9h-2.21ZM91.2,45.57v-2.05h6.16v2.05h-6.16ZM103.4,53.18c-1,0-1.88-.21-2.65-.63-.76-.42-1.35-.99-1.78-1.71-.42-.73-.63-1.57-.63-2.5,0-.74.12-1.42.36-2.03s.57-1.14.99-1.58c.43-.46.94-.8,1.53-1.04.6-.25,1.25-.38,1.96-.38.62,0,1.21.12,1.75.36.54.24,1.01.57,1.4.99.4.41.7.9.9,1.48.22.56.32,1.18.31,1.85l-.02.77h-7.69l-.41-1.51h6.25l-.29.31v-.4c-.04-.37-.16-.7-.36-.97-.2-.29-.47-.51-.79-.67-.31-.17-.66-.25-1.04-.25-.59,0-1.09.11-1.49.34-.4.23-.7.56-.9.99-.2.42-.31.95-.31,1.58s.13,1.15.38,1.6c.26.46.63.81,1.1,1.06.48.24,1.04.36,1.67.36.44,0,.85-.07,1.22-.22.37-.14.77-.4,1.21-.77l1.1,1.53c-.32.3-.7.56-1.12.77-.41.2-.84.37-1.3.49-.46.12-.91.18-1.35.18Z"/>
  </g>
</svg>