<?xml version="1.0" encoding="UTF-8"?>
<svg id="Calque_2" data-name="Calque 2" xmlns="http://www.w3.org/2000/svg" viewBox="0 0 87 76">
  <defs>
    <style>
      .cls-1 {
        fill: #303328;
      }

      .cls-2 {
        fill: #fff;
      }

      .cls-2, .cls-3 {
        fill-rule: evenodd;
      }

      .cls-3 {
        fill: #e62b29;
      }

      .cls-4 {
        fill: #e42d2e;
      }
    </style>
  </defs>
  <g id="Calque_1-2" data-name="Calque 1">
    <path class="cls-1" d="M48.49,0c21.27,0,38.51,17.01,38.51,38s-17.24,38-38.51,38c-15.16,0-28.27-8.64-34.55-21.21h24.09c1.01,0,1.83-.81,1.83-1.8s-.82-1.8-1.83-1.8H12.37h33.73c1.01,0,1.83-.81,1.83-1.8s-.82-1.8-1.83-1.8h1.32c1.01,0,1.83-.81,1.83-1.8s-.82-1.8-1.83-1.8h-3.67c1.01,0,1.83-.81,1.83-1.8s-.82-1.8-1.83-1.8h-5.72c1.01,0,1.83-.81,1.83-1.8s-.82-1.8-1.83-1.8H10.01C10.68,16.34,27.65,0,48.49,0Z"/>
    <path class="cls-1" d="M34.5,47.68h-11.08c-1,0-1.8.8-1.8,1.78s.81,1.78,1.8,1.78h11.08c1,0,1.8-.8,1.8-1.78s-.81-1.78-1.8-1.78Z"/>
    <path class="cls-1" d="M32.63,40.57H15.68c-1,0-1.8.8-1.8,1.78s.81,1.78,1.8,1.78h16.95c1,0,1.8-.8,1.8-1.78s-.81-1.78-1.8-1.78Z"/>
    <path class="cls-1" d="M15.68,47.68H1.8c-1,0-1.8.8-1.8,1.78s.81,1.78,1.8,1.78h13.88c1,0,1.8-.8,1.8-1.78s-.81-1.78-1.8-1.78Z"/>
    <path class="cls-4" d="M48.56,2.63c19.83,0,35.9,15.86,35.9,35.43s-16.07,35.43-35.9,35.43c-13.7,0-25.6-7.57-31.66-18.7h20.12c1.01,0,1.83-.81,1.83-1.8s-.82-1.8-1.83-1.8h7.33c1.01,0,1.83-.81,1.83-1.8s-.82-1.8-1.83-1.8h1.87c1.01,0,1.83-.81,1.83-1.8s-.82-1.8-1.83-1.8h-3.59c1.01,0,1.83-.81,1.83-1.8s-.82-1.8-1.83-1.8h-5.6c1.01,0,1.83-.81,1.83-1.8s-.82-1.8-1.83-1.8H12.68C13.39,17.79,29.18,2.63,48.56,2.63Z"/>
    <path class="cls-1" d="M44.6,12.34c2.52-1.17,5.44-1.17,7.96,0l15.62,7.25c3.27,1.52,5.36,4.77,5.36,8.34v20.04c0,3.57-2.09,6.82-5.36,8.34l-15.62,7.25c-2.52,1.17-5.44,1.17-7.96,0l-15.62-7.25c-.86-.4-1.63-.91-2.31-1.52h6.49c1,0,1.8-.8,1.8-1.78s-.81-1.78-1.8-1.78h-8.94c-.39-1.03-.61-2.13-.61-3.26v-.29h18.08c1,0,1.8-.8,1.8-1.78s-.81-1.78-1.8-1.78h-18.08v-3.56h9.41c1.07,0,1.94-.86,1.94-1.91s-.87-1.91-1.94-1.91h-9.41v-8.82c0-3.57,2.09-6.82,5.36-8.34l15.62-7.25Z"/>
    <path class="cls-2" d="M50.31,36.66c-1.17.5-2.5.5-3.67,0l-14.84-6.27c-3.78-1.6-3.78-6.88,0-8.48l14.84-6.27c1.17-.5,2.5-.5,3.67,0l14.84,6.27c3.78,1.6,3.78,6.88,0,8.48l-14.84,6.27Z"/>
    <path class="cls-3" d="M55.53,24.44c1.62.68,1.62,2.95,0,3.63l-6.35,2.68c-.5.21-1.07.21-1.58,0l-4.52-1.91,11.5-4.8.95.4ZM47.6,21.76c.5-.21,1.07-.21,1.58,0l3.7,1.56-11.5,4.8-.12-.05c-1.62-.68-1.62-2.95,0-3.63l6.35-2.68Z"/>
  </g>
</svg>