<?xml version="1.0" encoding="UTF-8"?>
<svg id="Calque_2" data-name="Calque 2" xmlns="http://www.w3.org/2000/svg" viewBox="0 0 30 30">
  <defs>
    <style>
      .cls-1 {
        fill: #fff;
      }
    </style>
  </defs>
  <g id="Calque_1-2" data-name="Calque 1">
    <path class="cls-1" d="M15,0c1.99,0,3.9.79,5.3,2.2,1.41,1.41,2.2,3.31,2.2,5.3s-.79,3.9-2.2,5.3c-1.41,1.41-3.31,2.2-5.3,2.2s-3.9-.79-5.3-2.2c-1.41-1.41-2.2-3.31-2.2-5.3s.79-3.9,2.2-5.3c1.41-1.41,3.31-2.2,5.3-2.2ZM15,3.75c-.99,0-1.95.4-2.65,1.1-.7.7-1.1,1.66-1.1,2.65s.4,1.95,1.1,2.65c.7.7,1.66,1.1,2.65,1.1s1.95-.4,2.65-1.1c.7-.7,1.1-1.66,1.1-2.65s-.4-1.95-1.1-2.65c-.7-.7-1.66-1.1-2.65-1.1ZM15,16.88c5.01,0,15,2.49,15,7.5v5.62H0v-5.62c0-5.01,9.99-7.5,15-7.5ZM15,20.44c-5.57,0-11.44,2.74-11.44,3.94v2.06h22.88v-2.06c0-1.2-5.87-3.94-11.44-3.94Z"/>
  </g>
</svg>